<?xml version="1.0" encoding="UTF-8" standalone="no"?> <svg xmlns="http://www.w3.org/2000/svg" viewBox="0 0 72 72"><defs><style>.cls-1{fill:#fd9b02;}.cls-2{fill:#fccb9a;}.cls-3{fill:#f7f7f7;}.cls-4{fill:#724025;}.cls-5{fill:#c2763e;}.cls-6{fill:#8a552e;}</style></defs><title>Cat</title><g id="Cat"><path class="cls-1" d="M39.5,16.761c3.79-3.159,10.291-6.363,14.844-8.4a4,4,0,0,1,5.644,3.537,45.312,45.312,0,0,1-2.6,16.243C53.2,39.636,39.5,16.761,39.5,16.761Z"/><path class="cls-2" d="M53.444,27.215c-1.529-.756-4.97-4.218-8.532-9.432a84.371,84.371,0,0,1,9.661-5.135,1,1,0,0,1,1.416.916,40.845,40.845,0,0,1-2.363,13.2C53.56,26.952,53.5,27.1,53.444,27.215Z"/><path class="cls-1" d="M32.5,16.761c-3.79-3.159-10.291-6.363-14.844-8.4a4,4,0,0,0-5.644,3.537,45.312,45.312,0,0,0,2.6,16.243C18.8,39.636,32.5,16.761,32.5,16.761Z"/><path class="cls-2" d="M18.556,27.215c1.529-.756,4.97-4.218,8.532-9.432a84.371,84.371,0,0,0-9.661-5.135,1,1,0,0,0-1.416.916,40.845,40.845,0,0,0,2.363,13.2C18.44,26.952,18.5,27.1,18.556,27.215Z"/><path class="cls-1" d="M64.86,41.907a1,1,0,0,0,.09-1.621A7.926,7.926,0,0,1,62,34C62,20,49.807,9,36,9A24.878,24.878,0,0,0,11,34a7.54,7.54,0,0,1-3.729,6.313.994.994,0,0,0,.006,1.68,9.107,9.107,0,0,0,1.182.6,1,1,0,0,1-.1,1.89c-.394.116-.754.207-1.067.279a.99.99,0,0,0-.634,1.465C9.082,50.439,18.259,64,36,64S62.918,50.439,65.339,46.231a.99.99,0,0,0-.634-1.465c-.313-.072-.673-.163-1.067-.279a1,1,0,0,1-.1-1.89A8.827,8.827,0,0,0,64.86,41.907Z"/><circle class="cls-3" cx="46" cy="33" r="5"/><path class="cls-4" d="M48.333,33A2.334,2.334,0,0,1,46,30.667a2.268,2.268,0,0,1,.335-1.133A3.362,3.362,0,0,0,46,29.5,3.5,3.5,0,1,0,49.5,33a3.362,3.362,0,0,0-.034-.335A2.268,2.268,0,0,1,48.333,33Z"/><circle class="cls-3" cx="26" cy="33" r="5"/><path class="cls-4" d="M28.333,33A2.334,2.334,0,0,1,26,30.667a2.268,2.268,0,0,1,.335-1.133A3.362,3.362,0,0,0,26,29.5,3.5,3.5,0,1,0,29.5,33a3.362,3.362,0,0,0-.034-.335A2.268,2.268,0,0,1,28.333,33Z"/><path class="cls-5" d="M43.765,52.608a1,1,0,0,0-1.408-.124c-.323.269-3.122,2.47-5.357.348V48a1,1,0,0,0-2,0v4.832c-2.235,2.123-5.035-.079-5.355-.346a1,1,0,1,0-1.29,1.528c1.5,1.268,4.872,2.852,7.645.617a4.911,4.911,0,0,0,3.151,1.122,7.405,7.405,0,0,0,4.494-1.739A1,1,0,0,0,43.765,52.608Z"/><path class="cls-6" d="M38.121,48.879l1.611-1.611A2.5,2.5,0,0,0,37.964,43H34.036a2.5,2.5,0,0,0-1.768,4.268l1.611,1.611A3,3,0,0,0,38.121,48.879Z"/><path class="cls-6" d="M47,45a1,1,0,0,1-.228-1.974l17-4a1,1,0,1,1,.458,1.948l-17,4A1.008,1.008,0,0,1,47,45Z"/><path class="cls-6" d="M64,53a1.008,1.008,0,0,1-.23-.026l-17-4a1,1,0,0,1,.458-1.948l17,4A1,1,0,0,1,64,53Z"/><path class="cls-6" d="M25,45a1.008,1.008,0,0,1-.23-.026l-17-4a1,1,0,1,1,.458-1.948l17,4A1,1,0,0,1,25,45Z"/><path class="cls-6" d="M8,53a1,1,0,0,1-.228-1.974l17-4a1,1,0,0,1,.458,1.948l-17,4A1.008,1.008,0,0,1,8,53Z"/></g></svg>